<svg xmlns="http://www.w3.org/2000/svg" viewBox="0 0 800 600" fill="none">
  <defs>
    <linearGradient id="g1" x1="0" y1="0" x2="800" y2="600" gradientUnits="userSpaceOnUse">
      <stop offset="0" stop-color="#3b82f6" stop-opacity="0.6"/>
      <stop offset="0.5" stop-color="#8b5cf6" stop-opacity="0.3"/>
      <stop offset="1" stop-color="#06b6d4" stop-opacity="0.5"/>
    </linearGradient>
    <linearGradient id="g2" x1="800" y1="0" x2="0" y2="600" gradientUnits="userSpaceOnUse">
      <stop offset="0" stop-color="#f59e0b" stop-opacity="0.15"/>
      <stop offset="1" stop-color="#3b82f6" stop-opacity="0.08"/>
    </linearGradient>
    <radialGradient id="glow1" cx="400" cy="300" r="300" gradientUnits="userSpaceOnUse">
      <stop offset="0" stop-color="#3b82f6" stop-opacity="0.12"/>
      <stop offset="1" stop-color="#3b82f6" stop-opacity="0"/>
    </radialGradient>
    <filter id="blur1"><feGaussianBlur stdDeviation="2"/></filter>
    <filter id="blur2"><feGaussianBlur stdDeviation="1.2"/></filter>
  </defs>

  <!-- Ambient glow -->
  <circle cx="400" cy="300" r="300" fill="url(#glow1)"/>

  <!-- Grid of dots -->
  <g opacity="0.15">
    <circle cx="80" cy="80" r="1.5" fill="#3b82f6"/><circle cx="160" cy="80" r="1.5" fill="#3b82f6"/>
    <circle cx="240" cy="80" r="1.5" fill="#3b82f6"/><circle cx="320" cy="80" r="1.5" fill="#3b82f6"/>
    <circle cx="400" cy="80" r="1.5" fill="#3b82f6"/><circle cx="480" cy="80" r="1.5" fill="#3b82f6"/>
    <circle cx="560" cy="80" r="1.5" fill="#3b82f6"/><circle cx="640" cy="80" r="1.5" fill="#3b82f6"/>
    <circle cx="720" cy="80" r="1.5" fill="#3b82f6"/>
    <circle cx="80" cy="160" r="1.5" fill="#3b82f6"/><circle cx="160" cy="160" r="1.5" fill="#3b82f6"/>
    <circle cx="240" cy="160" r="1.5" fill="#3b82f6"/><circle cx="320" cy="160" r="1.5" fill="#3b82f6"/>
    <circle cx="400" cy="160" r="1.5" fill="#3b82f6"/><circle cx="480" cy="160" r="1.5" fill="#3b82f6"/>
    <circle cx="560" cy="160" r="1.5" fill="#3b82f6"/><circle cx="640" cy="160" r="1.5" fill="#3b82f6"/>
    <circle cx="720" cy="160" r="1.5" fill="#3b82f6"/>
    <circle cx="80" cy="240" r="1.5" fill="#3b82f6"/><circle cx="160" cy="240" r="1.5" fill="#3b82f6"/>
    <circle cx="240" cy="240" r="1.5" fill="#3b82f6"/><circle cx="320" cy="240" r="1.5" fill="#3b82f6"/>
    <circle cx="400" cy="240" r="1.5" fill="#3b82f6"/><circle cx="480" cy="240" r="1.5" fill="#3b82f6"/>
    <circle cx="560" cy="240" r="1.5" fill="#3b82f6"/><circle cx="640" cy="240" r="1.5" fill="#3b82f6"/>
    <circle cx="720" cy="240" r="1.5" fill="#3b82f6"/>
    <circle cx="80" cy="320" r="1.5" fill="#3b82f6"/><circle cx="160" cy="320" r="1.5" fill="#3b82f6"/>
    <circle cx="240" cy="320" r="1.5" fill="#3b82f6"/><circle cx="320" cy="320" r="1.5" fill="#3b82f6"/>
    <circle cx="400" cy="320" r="1.5" fill="#3b82f6"/><circle cx="480" cy="320" r="1.5" fill="#3b82f6"/>
    <circle cx="560" cy="320" r="1.5" fill="#3b82f6"/><circle cx="640" cy="320" r="1.5" fill="#3b82f6"/>
    <circle cx="720" cy="320" r="1.5" fill="#3b82f6"/>
    <circle cx="80" cy="400" r="1.5" fill="#3b82f6"/><circle cx="160" cy="400" r="1.5" fill="#3b82f6"/>
    <circle cx="240" cy="400" r="1.5" fill="#3b82f6"/><circle cx="320" cy="400" r="1.5" fill="#3b82f6"/>
    <circle cx="400" cy="400" r="1.5" fill="#3b82f6"/><circle cx="480" cy="400" r="1.5" fill="#3b82f6"/>
    <circle cx="560" cy="400" r="1.5" fill="#3b82f6"/><circle cx="640" cy="400" r="1.5" fill="#3b82f6"/>
    <circle cx="720" cy="400" r="1.5" fill="#3b82f6"/>
    <circle cx="80" cy="480" r="1.5" fill="#3b82f6"/><circle cx="160" cy="480" r="1.5" fill="#3b82f6"/>
    <circle cx="240" cy="480" r="1.5" fill="#3b82f6"/><circle cx="320" cy="480" r="1.5" fill="#3b82f6"/>
    <circle cx="400" cy="480" r="1.5" fill="#3b82f6"/><circle cx="480" cy="480" r="1.5" fill="#3b82f6"/>
    <circle cx="560" cy="480" r="1.5" fill="#3b82f6"/><circle cx="640" cy="480" r="1.5" fill="#3b82f6"/>
    <circle cx="720" cy="480" r="1.5" fill="#3b82f6"/>
    <circle cx="80" cy="560" r="1.5" fill="#3b82f6"/><circle cx="160" cy="560" r="1.5" fill="#3b82f6"/>
    <circle cx="240" cy="560" r="1.5" fill="#3b82f6"/><circle cx="320" cy="560" r="1.5" fill="#3b82f6"/>
    <circle cx="400" cy="560" r="1.5" fill="#3b82f6"/><circle cx="480" cy="560" r="1.5" fill="#3b82f6"/>
    <circle cx="560" cy="560" r="1.5" fill="#3b82f6"/><circle cx="640" cy="560" r="1.5" fill="#3b82f6"/>
    <circle cx="720" cy="560" r="1.5" fill="#3b82f6"/>
  </g>

  <!-- Constellation lines connecting nodes -->
  <g stroke="url(#g1)" stroke-width="0.8" opacity="0.5">
    <line x1="240" y1="160" x2="400" y2="240"/>
    <line x1="400" y1="240" x2="560" y2="160"/>
    <line x1="400" y1="240" x2="480" y2="400"/>
    <line x1="400" y1="240" x2="320" y2="400"/>
    <line x1="320" y1="400" x2="480" y2="400"/>
    <line x1="240" y1="160" x2="160" y2="320"/>
    <line x1="560" y1="160" x2="640" y2="320"/>
    <line x1="160" y1="320" x2="320" y2="400"/>
    <line x1="640" y1="320" x2="480" y2="400"/>
    <line x1="480" y1="400" x2="560" y2="480"/>
    <line x1="320" y1="400" x2="240" y2="480"/>
    <line x1="240" y1="480" x2="400" y2="480"/>
    <line x1="400" y1="480" x2="560" y2="480"/>
  </g>

  <!-- Highlighted nodes -->
  <g filter="url(#blur1)">
    <circle cx="400" cy="240" r="6" fill="#3b82f6" opacity="0.6"/>
    <circle cx="320" cy="400" r="4" fill="#8b5cf6" opacity="0.5"/>
    <circle cx="480" cy="400" r="4" fill="#06b6d4" opacity="0.5"/>
  </g>
  <g>
    <circle cx="240" cy="160" r="3" fill="#3b82f6"/>
    <circle cx="400" cy="240" r="4" fill="#3b82f6"/>
    <circle cx="560" cy="160" r="3" fill="#3b82f6"/>
    <circle cx="160" cy="320" r="2.5" fill="#8b5cf6"/>
    <circle cx="640" cy="320" r="2.5" fill="#06b6d4"/>
    <circle cx="320" cy="400" r="3" fill="#8b5cf6"/>
    <circle cx="480" cy="400" r="3" fill="#06b6d4"/>
    <circle cx="240" cy="480" r="2" fill="#8b5cf6" opacity="0.7"/>
    <circle cx="400" cy="480" r="2" fill="#3b82f6" opacity="0.7"/>
    <circle cx="560" cy="480" r="2" fill="#06b6d4" opacity="0.7"/>
  </g>

  <!-- Geometric accents -->
  <rect x="350" y="120" width="100" height="100" rx="2" stroke="#3b82f6" stroke-width="0.5" opacity="0.12" transform="rotate(45 400 170)"/>
  <rect x="340" y="110" width="120" height="120" rx="2" stroke="#8b5cf6" stroke-width="0.3" opacity="0.08" transform="rotate(30 400 170)"/>

  <!-- Data flow particles -->
  <circle cx="300" cy="200" r="1.2" fill="#60a5fa" opacity="0.8"/>
  <circle cx="460" cy="200" r="1" fill="#60a5fa" opacity="0.6"/>
  <circle cx="360" cy="340" r="1" fill="#a78bfa" opacity="0.7"/>
  <circle cx="440" cy="340" r="1" fill="#67e8f9" opacity="0.7"/>
  <circle cx="380" cy="420" r="0.8" fill="#a78bfa" opacity="0.5"/>
  <circle cx="500" cy="300" r="1" fill="#67e8f9" opacity="0.6"/>
</svg>
